# xmcd
#
# Track frame offsets: 
#        150
#        13251
#        35771
#        47355
#        63743
#        78314
#        97570
#        110727
#        135685
#        149009
#        168924
#        182525
#        200139
#        213136
#        227442
#        242736
#        258917
#        273790
#        285011
#        296995
#
# Disc length: 4134 seconds
#
# Revision: 0
# Processed by: cddbd v1.5.2PL0 Copyright (c) Steve Scherf et al.
# Submitted via: ExactAudioCopy v0.99pb5
#
DISCID=1d102414
DTITLE=Billy Walker - 20 Great Western Hits
DYEAR=2007
DGENRE=Country
TTITLE0=Cross the Brazos at Waco
TTITLE1=El Paso
TTITLE2=Carlena and Jose Gomez
TTITLE3=Streets of Laredo
TTITLE4=Buenos Noches Nacogdoches
TTITLE5=Strawberry Roan
TTITLE6=The Lonely Rider
TTITLE7=Red River Valley
TTITLE8=Sweet Spanish Memories
TTITLE9=Little Joe the Wrangler
TTITLE10=Wild Texas Rose
TTITLE11=Patanio: Pride of the Plains
TTITLE12=That Ole El Paso Story Again
TTITLE13=Oh Bury Me Not on the Lone Prairie
TTITLE14=The Cowboy
TTITLE15=Shenandoah
TTITLE16=El Diablo
TTITLE17=Mexicali Moon
TTITLE18=Roving Gambler
TTITLE19=Goodbye Roseandra
EXTD=
EXTT0=
EXTT1=
EXTT2=
EXTT3=
EXTT4=
EXTT5=
EXTT6=
EXTT7=
EXTT8=
EXTT9=
EXTT10=
EXTT11=
EXTT12=
EXTT13=
EXTT14=
EXTT15=
EXTT16=
EXTT17=
EXTT18=
EXTT19=
PLAYORDER=
